<?xml version="1.0" standalone="no"?>
<!DOCTYPE svg PUBLIC "-//W3C//DTD SVG 20010904//EN"
 "http://www.w3.org/TR/2001/REC-SVG-20010904/DTD/svg10.dtd">
<svg version="1.0" xmlns="http://www.w3.org/2000/svg"
 width="640.000000pt" height="640.000000pt" viewBox="0 0 640.000000 640.000000"
 preserveAspectRatio="xMidYMid meet">

<g transform="translate(0.000000,640.000000) scale(0.100000,-0.100000)"
fill="#000000" stroke="none">
<path d="M2495 5433 c-399 -47 -728 -219 -993 -517 -422 -474 -498 -1205 -187
-1793 97 -184 1279 -2135 1302 -2150 31 -21 80 -19 111 4 20 15 214 338 483
803 l49 86 -43 84 c-23 47 -47 97 -52 113 -9 26 -21 9 -190 -280 -99 -170
-208 -357 -243 -416 l-64 -108 -575 958 c-316 527 -593 993 -615 1036 -56 113
-105 266 -129 408 -18 104 -20 150 -16 284 10 280 75 486 224 708 191 284 499
490 831 556 201 40 394 35 593 -13 510 -126 901 -553 985 -1078 12 -78 15
-141 11 -258 -6 -192 -34 -334 -96 -489 -12 -29 -20 -55 -18 -58 2 -2 48 1
101 7 53 6 101 8 106 5 13 -8 23 18 54 130 45 160 59 269 59 445 1 174 -9 257
-49 407 -92 346 -299 643 -596 855 -177 126 -436 231 -651 262 -96 14 -309 19
-392 9z"/>
<path d="M2528 4646 c-96 -17 -137 -31 -218 -71 -277 -139 -449 -440 -426
-746 15 -196 82 -344 221 -484 121 -123 228 -183 390 -221 103 -24 294 -15
397 18 246 80 446 289 514 539 28 100 26 310 -4 414 -59 205 -216 392 -405
485 -134 65 -322 92 -469 66z m272 -212 c90 -21 183 -76 260 -154 112 -113
163 -237 163 -395 -1 -173 -44 -278 -167 -401 -91 -91 -170 -135 -284 -159
-87 -19 -135 -19 -230 1 -115 23 -194 66 -283 154 -121 119 -169 235 -169 408
0 199 104 380 282 488 110 67 287 92 428 58z"/>
<path d="M4705 1718 l-70 -70 350 -344 c336 -331 351 -344 388 -344 49 0 73
13 93 52 33 64 30 69 -336 434 -187 186 -344 340 -348 341 -4 1 -38 -30 -77
-69z"/>
</g>
</svg>
